<?xml version="1.0" encoding="UTF-8" ?>
<svg version="1.1" width="512" height="512" xmlns="http://www.w3.org/2000/svg" shape-rendering="crispEdges">
<rect x="256" y="72" width="80" height="8" fill="#3BB6FF" />
<rect x="252" y="76" width="4" height="20" fill="#3BB6FF" />
<rect x="336" y="76" width="4" height="24" fill="#3BB6FF" />
<rect x="248" y="80" width="4" height="16" fill="#3BB6FF" />
<rect x="256" y="80" width="72" height="12" fill="#000C23" />
<rect x="328" y="80" width="8" height="4" fill="#3BB6FF" />
<rect x="328" y="84" width="4" height="8" fill="#000C23" />
<rect x="332" y="84" width="4" height="28" fill="#3BB6FF" />
<rect x="256" y="92" width="4" height="12" fill="#000C23" />
<rect x="260" y="92" width="12" height="4" fill="#FFE544" />
<rect x="272" y="92" width="36" height="12" fill="#FFC600" />
<rect x="308" y="92" width="12" height="4" fill="#FE8300" />
<rect x="320" y="92" width="8" height="12" fill="#000C23" />
<rect x="328" y="92" width="4" height="28" fill="#3BB6FF" />
<rect x="240" y="96" width="8" height="12" fill="#3BB6FF" />
<rect x="248" y="96" width="8" height="8" fill="#000C23" />
<rect x="260" y="96" width="8" height="8" fill="#FFE544" />
<rect x="268" y="96" width="4" height="140" fill="#FFC600" />
<rect x="308" y="96" width="8" height="8" fill="#FE8300" />
<rect x="316" y="96" width="4" height="24" fill="#000C23" />
<rect x="248" y="104" width="4" height="12" fill="#000C23" />
<rect x="252" y="104" width="12" height="8" fill="#FFE544" />
<rect x="264" y="104" width="4" height="132" fill="#FFC600" />
<rect x="272" y="104" width="32" height="8" fill="#FFC600" />
<rect x="304" y="104" width="8" height="8" fill="#FE8300" />
<rect x="312" y="104" width="4" height="24" fill="#000C23" />
<rect x="320" y="104" width="4" height="8" fill="#000C23" />
<rect x="324" y="104" width="4" height="20" fill="#3BB6FF" />
<rect x="232" y="108" width="8" height="12" fill="#3BB6FF" />
<rect x="240" y="108" width="8" height="20" fill="#000C23" />
<rect x="252" y="112" width="8" height="8" fill="#FFE544" />
<rect x="260" y="112" width="4" height="132" fill="#FFC600" />
<rect x="272" y="112" width="28" height="12" fill="#FFC600" />
<rect x="300" y="112" width="8" height="12" fill="#FE8300" />
<rect x="308" y="112" width="4" height="24" fill="#000C23" />
<rect x="320" y="112" width="4" height="20" fill="#3BB6FF" />
<rect x="248" y="116" width="4" height="16" fill="#FFE544" />
<rect x="228" y="120" width="4" height="12" fill="#3BB6FF" />
<rect x="232" y="120" width="8" height="20" fill="#000C23" />
<rect x="252" y="120" width="4" height="8" fill="#FFE544" />
<rect x="256" y="120" width="4" height="124" fill="#FFC600" />
<rect x="316" y="120" width="4" height="16" fill="#3BB6FF" />
<rect x="224" y="124" width="4" height="16" fill="#3BB6FF" />
<rect x="272" y="124" width="20" height="12" fill="#FFC600" />
<rect x="292" y="124" width="8" height="12" fill="#FE8300" />
<rect x="300" y="124" width="8" height="12" fill="#000C23" />
<rect x="240" y="128" width="8" height="12" fill="#FFE544" />
<rect x="252" y="128" width="4" height="124" fill="#FFC600" />
<rect x="312" y="128" width="4" height="16" fill="#3BB6FF" />
<rect x="220" y="132" width="4" height="16" fill="#3BB6FF" />
<rect x="228" y="132" width="4" height="20" fill="#000C23" />
<rect x="248" y="132" width="4" height="72" fill="#FFC600" />
<rect x="272" y="136" width="12" height="12" fill="#FFC600" />
<rect x="284" y="136" width="8" height="12" fill="#FE8300" />
<rect x="292" y="136" width="12" height="8" fill="#000C23" />
<rect x="304" y="136" width="8" height="12" fill="#3BB6FF" />
<rect x="224" y="140" width="4" height="28" fill="#000C23" />
<rect x="232" y="140" width="12" height="8" fill="#FFE544" />
<rect x="244" y="140" width="4" height="64" fill="#FFC600" />
<rect x="212" y="144" width="8" height="16" fill="#3BB6FF" />
<rect x="292" y="144" width="8" height="12" fill="#000C23" />
<rect x="300" y="144" width="4" height="24" fill="#3BB6FF" />
<rect x="220" y="148" width="4" height="20" fill="#000C23" />
<rect x="232" y="148" width="8" height="8" fill="#FFE544" />
<rect x="240" y="148" width="4" height="56" fill="#FFC600" />
<rect x="272" y="148" width="4" height="12" fill="#FFC600" />
<rect x="276" y="148" width="8" height="12" fill="#FE8300" />
<rect x="284" y="148" width="8" height="28" fill="#000C23" />
<rect x="304" y="148" width="4" height="8" fill="#3BB6FF" />
<rect x="228" y="152" width="4" height="16" fill="#FFE544" />
<rect x="232" y="156" width="4" height="8" fill="#FFE544" />
<rect x="236" y="156" width="4" height="48" fill="#FFC600" />
<rect x="292" y="156" width="8" height="12" fill="#3BB6FF" />
<rect x="204" y="160" width="8" height="12" fill="#3BB6FF" />
<rect x="212" y="160" width="8" height="20" fill="#000C23" />
<rect x="272" y="160" width="8" height="16" fill="#FE8300" />
<rect x="280" y="160" width="4" height="16" fill="#000C23" />
<rect x="304" y="160" width="40" height="8" fill="#3BB6FF" />
<rect x="232" y="164" width="4" height="40" fill="#FFC600" />
<rect x="344" y="164" width="4" height="24" fill="#3BB6FF" />
<rect x="220" y="168" width="8" height="12" fill="#FFE544" />
<rect x="228" y="168" width="4" height="36" fill="#FFC600" />
<rect x="292" y="168" width="48" height="8" fill="#000C23" />
<rect x="340" y="168" width="4" height="4" fill="#3BB6FF" />
<rect x="348" y="168" width="4" height="16" fill="#3BB6FF" />
<rect x="200" y="172" width="4" height="12" fill="#3BB6FF" />
<rect x="204" y="172" width="8" height="16" fill="#000C23" />
<rect x="340" y="172" width="4" height="8" fill="#000C23" />
<rect x="272" y="176" width="52" height="4" fill="#FFC600" />
<rect x="324" y="176" width="12" height="4" fill="#FE8300" />
<rect x="336" y="176" width="4" height="12" fill="#000C23" />
<rect x="212" y="180" width="12" height="4" fill="#FFE544" />
<rect x="224" y="180" width="4" height="24" fill="#FFC600" />
<rect x="272" y="180" width="48" height="4" fill="#FFC600" />
<rect x="320" y="180" width="8" height="8" fill="#FE8300" />
<rect x="328" y="180" width="8" height="8" fill="#000C23" />
<rect x="340" y="180" width="4" height="16" fill="#3BB6FF" />
<rect x="192" y="184" width="8" height="16" fill="#3BB6FF" />
<rect x="200" y="184" width="4" height="28" fill="#000C23" />
<rect x="212" y="184" width="8" height="8" fill="#FFE544" />
<rect x="220" y="184" width="4" height="20" fill="#FFC600" />
<rect x="272" y="184" width="44" height="4" fill="#FFC600" />
<rect x="316" y="184" width="4" height="12" fill="#FE8300" />
<rect x="204" y="188" width="4" height="4" fill="#000C23" />
<rect x="208" y="188" width="4" height="16" fill="#FFE544" />
<rect x="272" y="188" width="40" height="4" fill="#FFC600" />
<rect x="312" y="188" width="4" height="12" fill="#FE8300" />
<rect x="320" y="188" width="4" height="4" fill="#FE8300" />
<rect x="324" y="188" width="8" height="8" fill="#000C23" />
<rect x="332" y="188" width="8" height="12" fill="#3BB6FF" />
<rect x="204" y="192" width="4" height="12" fill="#FFE544" />
<rect x="212" y="192" width="4" height="4" fill="#FFE544" />
<rect x="216" y="192" width="4" height="12" fill="#FFC600" />
<rect x="272" y="192" width="36" height="4" fill="#FFC600" />
<rect x="308" y="192" width="4" height="8" fill="#FE8300" />
<rect x="320" y="192" width="4" height="12" fill="#000C23" />
<rect x="212" y="196" width="4" height="8" fill="#FFC600" />
<rect x="272" y="196" width="32" height="4" fill="#FFC600" />
<rect x="304" y="196" width="4" height="12" fill="#FE8300" />
<rect x="316" y="196" width="4" height="16" fill="#000C23" />
<rect x="324" y="196" width="8" height="12" fill="#3BB6FF" />
<rect x="184" y="200" width="8" height="16" fill="#3BB6FF" />
<rect x="192" y="200" width="8" height="12" fill="#000C23" />
<rect x="272" y="200" width="28" height="4" fill="#FFC600" />
<rect x="300" y="200" width="4" height="8" fill="#FE8300" />
<rect x="308" y="200" width="8" height="12" fill="#000C23" />
<rect x="332" y="200" width="4" height="4" fill="#3BB6FF" />
<rect x="204" y="204" width="44" height="8" fill="#000C23" />
<rect x="248" y="204" width="4" height="20" fill="#FFE544" />
<rect x="272" y="204" width="24" height="4" fill="#FFC600" />
<rect x="296" y="204" width="4" height="12" fill="#FE8300" />
<rect x="320" y="204" width="4" height="12" fill="#3BB6FF" />
<rect x="272" y="208" width="20" height="4" fill="#FFC600" />
<rect x="292" y="208" width="4" height="8" fill="#FE8300" />
<rect x="300" y="208" width="8" height="8" fill="#000C23" />
<rect x="324" y="208" width="4" height="8" fill="#3BB6FF" />
<rect x="192" y="212" width="40" height="8" fill="#3BB6FF" />
<rect x="232" y="212" width="16" height="12" fill="#000C23" />
<rect x="272" y="212" width="16" height="4" fill="#FFC600" />
<rect x="288" y="212" width="4" height="12" fill="#FE8300" />
<rect x="308" y="212" width="4" height="4" fill="#000C23" />
<rect x="312" y="212" width="8" height="12" fill="#3BB6FF" />
<rect x="188" y="216" width="4" height="4" fill="#3BB6FF" />
<rect x="272" y="216" width="12" height="4" fill="#FFC600" />
<rect x="284" y="216" width="4" height="8" fill="#FE8300" />
<rect x="292" y="216" width="12" height="8" fill="#000C23" />
<rect x="304" y="216" width="8" height="16" fill="#3BB6FF" />
<rect x="224" y="220" width="8" height="16" fill="#3BB6FF" />
<rect x="272" y="220" width="8" height="8" fill="#FFC600" />
<rect x="280" y="220" width="4" height="16" fill="#FE8300" />
<rect x="232" y="224" width="8" height="20" fill="#000C23" />
<rect x="240" y="224" width="8" height="4" fill="#FFE544" />
<rect x="248" y="224" width="4" height="36" fill="#FFC600" />
<rect x="284" y="224" width="16" height="8" fill="#000C23" />
<rect x="300" y="224" width="4" height="16" fill="#3BB6FF" />
<rect x="240" y="228" width="4" height="16" fill="#FFE544" />
<rect x="244" y="228" width="4" height="36" fill="#FFC600" />
<rect x="272" y="228" width="8" height="8" fill="#FE8300" />
<rect x="284" y="232" width="8" height="8" fill="#000C23" />
<rect x="292" y="232" width="8" height="16" fill="#3BB6FF" />
<rect x="304" y="232" width="4" height="4" fill="#3BB6FF" />
<rect x="216" y="236" width="8" height="20" fill="#3BB6FF" />
<rect x="224" y="236" width="8" height="28" fill="#000C23" />
<rect x="264" y="236" width="12" height="8" fill="#FE8300" />
<rect x="276" y="236" width="8" height="12" fill="#000C23" />
<rect x="284" y="240" width="4" height="4" fill="#000C23" />
<rect x="288" y="240" width="4" height="16" fill="#3BB6FF" />
<rect x="232" y="244" width="8" height="20" fill="#FFE544" />
<rect x="240" y="244" width="4" height="20" fill="#FFC600" />
<rect x="256" y="244" width="12" height="4" fill="#FE8300" />
<rect x="268" y="244" width="8" height="12" fill="#000C23" />
<rect x="284" y="244" width="4" height="16" fill="#3BB6FF" />
<rect x="256" y="248" width="8" height="8" fill="#FE8300" />
<rect x="264" y="248" width="4" height="20" fill="#000C23" />
<rect x="276" y="248" width="4" height="8" fill="#000C23" />
<rect x="280" y="248" width="4" height="16" fill="#3BB6FF" />
<rect x="292" y="248" width="4" height="4" fill="#3BB6FF" />
<rect x="252" y="252" width="4" height="16" fill="#FE8300" />
<rect x="212" y="256" width="8" height="20" fill="#3BB6FF" />
<rect x="220" y="256" width="4" height="28" fill="#000C23" />
<rect x="256" y="256" width="4" height="8" fill="#FE8300" />
<rect x="260" y="256" width="4" height="16" fill="#000C23" />
<rect x="268" y="256" width="4" height="8" fill="#000C23" />
<rect x="272" y="256" width="8" height="16" fill="#3BB6FF" />
<rect x="248" y="260" width="4" height="8" fill="#FE8300" />
<rect x="224" y="264" width="4" height="8" fill="#000C23" />
<rect x="228" y="264" width="4" height="12" fill="#FFE544" />
<rect x="232" y="264" width="8" height="12" fill="#FFC600" />
<rect x="240" y="264" width="8" height="16" fill="#FE8300" />
<rect x="256" y="264" width="4" height="12" fill="#000C23" />
<rect x="268" y="264" width="4" height="16" fill="#3BB6FF" />
<rect x="248" y="268" width="8" height="12" fill="#000C23" />
<rect x="264" y="268" width="4" height="16" fill="#3BB6FF" />
<rect x="224" y="272" width="4" height="12" fill="#FFE544" />
<rect x="260" y="272" width="4" height="16" fill="#3BB6FF" />
<rect x="272" y="272" width="4" height="4" fill="#3BB6FF" />
<rect x="204" y="276" width="8" height="40" fill="#3BB6FF" />
<rect x="212" y="276" width="8" height="32" fill="#000C23" />
<rect x="228" y="276" width="4" height="8" fill="#FFC600" />
<rect x="232" y="276" width="8" height="8" fill="#FE8300" />
<rect x="256" y="276" width="4" height="16" fill="#3BB6FF" />
<rect x="240" y="280" width="12" height="8" fill="#000C23" />
<rect x="252" y="280" width="4" height="16" fill="#3BB6FF" />
<rect x="220" y="284" width="4" height="12" fill="#FFE544" />
<rect x="224" y="284" width="4" height="8" fill="#FFC600" />
<rect x="228" y="284" width="4" height="8" fill="#FE8300" />
<rect x="232" y="284" width="8" height="12" fill="#000C23" />
<rect x="240" y="288" width="4" height="8" fill="#000C23" />
<rect x="244" y="288" width="8" height="12" fill="#3BB6FF" />
<rect x="224" y="292" width="4" height="8" fill="#FE8300" />
<rect x="228" y="292" width="4" height="12" fill="#000C23" />
<rect x="220" y="296" width="4" height="4" fill="#FE8300" />
<rect x="232" y="296" width="4" height="8" fill="#000C23" />
<rect x="236" y="296" width="8" height="12" fill="#3BB6FF" />
<rect x="220" y="300" width="8" height="8" fill="#000C23" />
<rect x="244" y="300" width="4" height="4" fill="#3BB6FF" />
<rect x="228" y="304" width="8" height="12" fill="#3BB6FF" />
<rect x="212" y="308" width="16" height="8" fill="#3BB6FF" />
<rect x="236" y="308" width="4" height="4" fill="#3BB6FF" />
<rect x="48" y="332" width="64" height="8" fill="#3BB6FF" />
<rect x="236" y="332" width="40" height="8" fill="#3BB6FF" />
<rect x="44" y="336" width="4" height="68" fill="#3BB6FF" />
<rect x="112" y="336" width="4" height="16" fill="#3BB6FF" />
<rect x="232" y="336" width="4" height="16" fill="#3BB6FF" />
<rect x="276" y="336" width="4" height="12" fill="#3BB6FF" />
<rect x="40" y="340" width="4" height="64" fill="#3BB6FF" />
<rect x="48" y="340" width="4" height="4" fill="#3BB6FF" />
<rect x="52" y="340" width="56" height="8" fill="#000C23" />
<rect x="108" y="340" width="4" height="4" fill="#3BB6FF" />
<rect x="236" y="340" width="4" height="4" fill="#3BB6FF" />
<rect x="240" y="340" width="32" height="8" fill="#000C23" />
<rect x="272" y="340" width="4" height="4" fill="#3BB6FF" />
<rect x="48" y="344" width="4" height="60" fill="#000C23" />
<rect x="108" y="344" width="4" height="92" fill="#000C23" />
<rect x="116" y="344" width="116" height="8" fill="#3BB6FF" />
<rect x="236" y="344" width="4" height="12" fill="#000C23" />
<rect x="272" y="344" width="4" height="12" fill="#000C23" />
<rect x="280" y="344" width="192" height="8" fill="#3BB6FF" />
<rect x="52" y="348" width="8" height="4" fill="#000C23" />
<rect x="60" y="348" width="8" height="52" fill="#FFC600" />
<rect x="68" y="348" width="24" height="4" fill="#000C23" />
<rect x="92" y="348" width="8" height="4" fill="#FFC600" />
<rect x="100" y="348" width="8" height="4" fill="#000C23" />
<rect x="240" y="348" width="4" height="4" fill="#000C23" />
<rect x="244" y="348" width="8" height="4" fill="#FFE544" />
<rect x="252" y="348" width="16" height="16" fill="#FFC600" />
<rect x="268" y="348" width="4" height="4" fill="#000C23" />
<rect x="276" y="348" width="4" height="76" fill="#000C23" />
<rect x="472" y="348" width="4" height="36" fill="#3BB6FF" />
<rect x="52" y="352" width="4" height="52" fill="#000C23" />
<rect x="56" y="352" width="4" height="48" fill="#FFE544" />
<rect x="68" y="352" width="4" height="4" fill="#FFC600" />
<rect x="72" y="352" width="16" height="44" fill="#000C23" />
<rect x="88" y="352" width="8" height="40" fill="#FFE544" />
<rect x="96" y="352" width="8" height="4" fill="#FFC600" />
<rect x="104" y="352" width="4" height="80" fill="#000C23" />
<rect x="112" y="352" width="124" height="8" fill="#000C23" />
<rect x="240" y="352" width="4" height="4" fill="#FFE544" />
<rect x="244" y="352" width="8" height="12" fill="#FFC600" />
<rect x="268" y="352" width="4" height="52" fill="#FFC600" />
<rect x="280" y="352" width="184" height="8" fill="#000C23" />
<rect x="464" y="352" width="8" height="4" fill="#3BB6FF" />
<rect x="68" y="356" width="4" height="40" fill="#FE8300" />
<rect x="96" y="356" width="8" height="44" fill="#FE8300" />
<rect x="236" y="356" width="4" height="52" fill="#FFE544" />
<rect x="240" y="356" width="4" height="68" fill="#FFC600" />
<rect x="272" y="356" width="4" height="4" fill="#FFC600" />
<rect x="464" y="356" width="4" height="28" fill="#000C23" />
<rect x="468" y="356" width="4" height="32" fill="#3BB6FF" />
<rect x="112" y="360" width="4" height="8" fill="#000C23" />
<rect x="116" y="360" width="28" height="4" fill="#FFE544" />
<rect x="144" y="360" width="16" height="4" fill="#000C23" />
<rect x="160" y="360" width="4" height="4" fill="#FFE544" />
<rect x="164" y="360" width="4" height="8" fill="#FFC600" />
<rect x="168" y="360" width="24" height="4" fill="#000C23" />
<rect x="192" y="360" width="32" height="4" fill="#FFE544" />
<rect x="224" y="360" width="12" height="4" fill="#000C23" />
<rect x="272" y="360" width="4" height="56" fill="#FE8300" />
<rect x="280" y="360" width="8" height="4" fill="#000C23" />
<rect x="288" y="360" width="4" height="52" fill="#FFC600" />
<rect x="292" y="360" width="4" height="48" fill="#FE8300" />
<rect x="296" y="360" width="20" height="4" fill="#000C23" />
<rect x="316" y="360" width="4" height="4" fill="#FE8300" />
<rect x="320" y="360" width="16" height="4" fill="#000C23" />
<rect x="336" y="360" width="28" height="8" fill="#FFC600" />
<rect x="364" y="360" width="16" height="4" fill="#000C23" />
<rect x="380" y="360" width="24" height="8" fill="#FFE544" />
<rect x="404" y="360" width="4" height="12" fill="#FFC600" />
<rect x="408" y="360" width="16" height="4" fill="#000C23" />
<rect x="424" y="360" width="32" height="4" fill="#FFE544" />
<rect x="456" y="360" width="8" height="4" fill="#000C23" />
<rect x="116" y="364" width="4" height="8" fill="#FFE544" />
<rect x="120" y="364" width="24" height="8" fill="#FFC600" />
<rect x="144" y="364" width="12" height="4" fill="#000C23" />
<rect x="156" y="364" width="4" height="44" fill="#FFE544" />
<rect x="160" y="364" width="4" height="52" fill="#FFC600" />
<rect x="168" y="364" width="4" height="4" fill="#FFC600" />
<rect x="172" y="364" width="16" height="44" fill="#000C23" />
<rect x="188" y="364" width="4" height="4" fill="#FFE544" />
<rect x="192" y="364" width="36" height="8" fill="#FFC600" />
<rect x="228" y="364" width="8" height="68" fill="#000C23" />
<rect x="244" y="364" width="4" height="4" fill="#FFC600" />
<rect x="248" y="364" width="16" height="4" fill="#FE8300" />
<rect x="264" y="364" width="4" height="40" fill="#FFC600" />
<rect x="280" y="364" width="4" height="64" fill="#000C23" />
<rect x="284" y="364" width="4" height="44" fill="#FFE544" />
<rect x="296" y="364" width="4" height="44" fill="#FE8300" />
<rect x="300" y="364" width="12" height="44" fill="#000C23" />
<rect x="312" y="364" width="8" height="44" fill="#FFC600" />
<rect x="320" y="364" width="4" height="52" fill="#FE8300" />
<rect x="324" y="364" width="8" height="72" fill="#000C23" />
<rect x="332" y="364" width="4" height="36" fill="#FFE544" />
<rect x="364" y="364" width="4" height="8" fill="#FFC600" />
<rect x="368" y="364" width="12" height="4" fill="#000C23" />
<rect x="408" y="364" width="4" height="4" fill="#FFC600" />
<rect x="412" y="364" width="8" height="64" fill="#000C23" />
<rect x="420" y="364" width="4" height="4" fill="#FFE544" />
<rect x="424" y="364" width="36" height="8" fill="#FFC600" />
<rect x="460" y="364" width="4" height="24" fill="#000C23" />
<rect x="112" y="368" width="4" height="36" fill="#FFE544" />
<rect x="144" y="368" width="4" height="4" fill="#FFC600" />
<rect x="148" y="368" width="8" height="68" fill="#000C23" />
<rect x="164" y="368" width="8" height="40" fill="#FE8300" />
<rect x="188" y="368" width="4" height="4" fill="#FFC600" />
<rect x="244" y="368" width="4" height="44" fill="#FE8300" />
<rect x="248" y="368" width="16" height="32" fill="#000C23" />
<rect x="336" y="368" width="4" height="28" fill="#FFE544" />
<rect x="340" y="368" width="24" height="4" fill="#FFC600" />
<rect x="368" y="368" width="8" height="68" fill="#000C23" />
<rect x="376" y="368" width="8" height="20" fill="#FFE544" />
<rect x="384" y="368" width="20" height="4" fill="#FFC600" />
<rect x="408" y="368" width="4" height="4" fill="#FE8300" />
<rect x="420" y="368" width="4" height="4" fill="#FFC600" />
<rect x="116" y="372" width="12" height="4" fill="#FFC600" />
<rect x="128" y="372" width="4" height="4" fill="#FE8300" />
<rect x="132" y="372" width="12" height="4" fill="#FFC600" />
<rect x="144" y="372" width="4" height="48" fill="#FE8300" />
<rect x="188" y="372" width="4" height="40" fill="#000C23" />
<rect x="192" y="372" width="32" height="4" fill="#FE8300" />
<rect x="224" y="372" width="4" height="60" fill="#000C23" />
<rect x="340" y="372" width="4" height="4" fill="#FFC600" />
<rect x="344" y="372" width="20" height="4" fill="#FE8300" />
<rect x="364" y="372" width="4" height="40" fill="#000C23" />
<rect x="384" y="372" width="24" height="4" fill="#FE8300" />
<rect x="408" y="372" width="4" height="24" fill="#000C23" />
<rect x="420" y="372" width="4" height="56" fill="#000C23" />
<rect x="424" y="372" width="32" height="4" fill="#FE8300" />
<rect x="456" y="372" width="4" height="16" fill="#000C23" />
<rect x="116" y="376" width="8" height="4" fill="#FFC600" />
<rect x="124" y="376" width="4" height="4" fill="#FE8300" />
<rect x="128" y="376" width="4" height="32" fill="#000C23" />
<rect x="132" y="376" width="4" height="4" fill="#FE8300" />
<rect x="136" y="376" width="8" height="36" fill="#FFC600" />
<rect x="192" y="376" width="8" height="60" fill="#000C23" />
<rect x="200" y="376" width="8" height="44" fill="#FFC600" />
<rect x="208" y="376" width="8" height="44" fill="#FE8300" />
<rect x="216" y="376" width="8" height="56" fill="#000C23" />
<rect x="340" y="376" width="8" height="8" fill="#FE8300" />
<rect x="348" y="376" width="16" height="8" fill="#000C23" />
<rect x="384" y="376" width="4" height="8" fill="#FE8300" />
<rect x="388" y="376" width="20" height="8" fill="#000C23" />
<rect x="424" y="376" width="8" height="52" fill="#000C23" />
<rect x="432" y="376" width="8" height="44" fill="#FFC600" />
<rect x="440" y="376" width="8" height="44" fill="#FE8300" />
<rect x="448" y="376" width="8" height="56" fill="#000C23" />
<rect x="116" y="380" width="4" height="40" fill="#FFC600" />
<rect x="120" y="380" width="4" height="24" fill="#FE8300" />
<rect x="124" y="380" width="4" height="24" fill="#000C23" />
<rect x="132" y="380" width="4" height="24" fill="#000C23" />
<rect x="340" y="384" width="20" height="12" fill="#FFC600" />
<rect x="360" y="384" width="4" height="4" fill="#000C23" />
<rect x="384" y="384" width="20" height="12" fill="#FFC600" />
<rect x="404" y="384" width="4" height="4" fill="#000C23" />
<rect x="464" y="384" width="4" height="12" fill="#3BB6FF" />
<rect x="360" y="388" width="4" height="4" fill="#FFC600" />
<rect x="376" y="388" width="8" height="4" fill="#FE8300" />
<rect x="404" y="388" width="4" height="20" fill="#FFC600" />
<rect x="456" y="388" width="8" height="52" fill="#3BB6FF" />
<rect x="88" y="392" width="8" height="4" fill="#FFC600" />
<rect x="360" y="392" width="4" height="4" fill="#FE8300" />
<rect x="376" y="392" width="8" height="16" fill="#000C23" />
<rect x="68" y="396" width="4" height="20" fill="#FFC600" />
<rect x="72" y="396" width="4" height="12" fill="#FE8300" />
<rect x="76" y="396" width="8" height="12" fill="#000C23" />
<rect x="84" y="396" width="4" height="12" fill="#FFE544" />
<rect x="88" y="396" width="4" height="12" fill="#FFC600" />
<rect x="92" y="396" width="4" height="20" fill="#FE8300" />
<rect x="336" y="396" width="4" height="24" fill="#FFC600" />
<rect x="340" y="396" width="20" height="4" fill="#FE8300" />
<rect x="360" y="396" width="4" height="12" fill="#000C23" />
<rect x="384" y="396" width="16" height="4" fill="#FE8300" />
<rect x="400" y="396" width="4" height="12" fill="#FFC600" />
<rect x="408" y="396" width="4" height="4" fill="#FFC600" />
<rect x="56" y="400" width="8" height="20" fill="#000C23" />
<rect x="64" y="400" width="4" height="16" fill="#FFC600" />
<rect x="96" y="400" width="8" height="32" fill="#000C23" />
<rect x="248" y="400" width="8" height="12" fill="#000C23" />
<rect x="256" y="400" width="8" height="12" fill="#FFC600" />
<rect x="332" y="400" width="4" height="20" fill="#FFC600" />
<rect x="340" y="400" width="8" height="8" fill="#FE8300" />
<rect x="348" y="400" width="12" height="8" fill="#000C23" />
<rect x="384" y="400" width="16" height="8" fill="#000C23" />
<rect x="408" y="400" width="4" height="16" fill="#FE8300" />
<rect x="48" y="404" width="8" height="16" fill="#3BB6FF" />
<rect x="112" y="404" width="4" height="8" fill="#FFC600" />
<rect x="120" y="404" width="8" height="16" fill="#FFC600" />
<rect x="132" y="404" width="4" height="16" fill="#FFC600" />
<rect x="264" y="404" width="8" height="12" fill="#FE8300" />
<rect x="72" y="408" width="12" height="8" fill="#FFC600" />
<rect x="84" y="408" width="8" height="8" fill="#FE8300" />
<rect x="128" y="408" width="4" height="12" fill="#FFC600" />
<rect x="156" y="408" width="4" height="8" fill="#FFC600" />
<rect x="164" y="408" width="24" height="8" fill="#FFC600" />
<rect x="236" y="408" width="4" height="12" fill="#FFC600" />
<rect x="284" y="408" width="4" height="4" fill="#FFC600" />
<rect x="292" y="408" width="24" height="4" fill="#FFC600" />
<rect x="316" y="408" width="4" height="16" fill="#FE8300" />
<rect x="340" y="408" width="24" height="12" fill="#FFC600" />
<rect x="376" y="408" width="4" height="4" fill="#000C23" />
<rect x="380" y="408" width="12" height="4" fill="#FFE544" />
<rect x="392" y="408" width="8" height="12" fill="#FFC600" />
<rect x="400" y="408" width="8" height="8" fill="#FE8300" />
<rect x="112" y="412" width="4" height="8" fill="#FE8300" />
<rect x="136" y="412" width="4" height="4" fill="#FFC600" />
<rect x="140" y="412" width="4" height="12" fill="#FE8300" />
<rect x="188" y="412" width="4" height="4" fill="#FFC600" />
<rect x="244" y="412" width="12" height="4" fill="#FFC600" />
<rect x="256" y="412" width="8" height="12" fill="#FE8300" />
<rect x="284" y="412" width="8" height="4" fill="#FE8300" />
<rect x="292" y="412" width="20" height="4" fill="#FFC600" />
<rect x="312" y="412" width="4" height="12" fill="#FE8300" />
<rect x="364" y="412" width="4" height="4" fill="#FFC600" />
<rect x="376" y="412" width="12" height="4" fill="#FFE544" />
<rect x="388" y="412" width="4" height="8" fill="#FFC600" />
<rect x="64" y="416" width="8" height="12" fill="#000C23" />
<rect x="72" y="416" width="4" height="4" fill="#FFC600" />
<rect x="76" y="416" width="12" height="8" fill="#FE8300" />
<rect x="88" y="416" width="8" height="20" fill="#000C23" />
<rect x="136" y="416" width="4" height="8" fill="#FE8300" />
<rect x="156" y="416" width="36" height="4" fill="#FE8300" />
<rect x="244" y="416" width="4" height="4" fill="#FFC600" />
<rect x="248" y="416" width="8" height="8" fill="#FE8300" />
<rect x="264" y="416" width="8" height="8" fill="#FFC600" />
<rect x="272" y="416" width="4" height="4" fill="#000C23" />
<rect x="284" y="416" width="8" height="28" fill="#000C23" />
<rect x="292" y="416" width="4" height="8" fill="#FFC600" />
<rect x="296" y="416" width="16" height="8" fill="#FE8300" />
<rect x="320" y="416" width="4" height="20" fill="#000C23" />
<rect x="364" y="416" width="4" height="4" fill="#FE8300" />
<rect x="376" y="416" width="12" height="4" fill="#FFC600" />
<rect x="400" y="416" width="4" height="8" fill="#FE8300" />
<rect x="404" y="416" width="8" height="20" fill="#000C23" />
<rect x="56" y="420" width="8" height="12" fill="#3BB6FF" />
<rect x="72" y="420" width="4" height="4" fill="#FE8300" />
<rect x="112" y="420" width="4" height="16" fill="#000C23" />
<rect x="116" y="420" width="20" height="4" fill="#FE8300" />
<rect x="144" y="420" width="4" height="16" fill="#000C23" />
<rect x="156" y="420" width="4" height="16" fill="#000C23" />
<rect x="160" y="420" width="28" height="4" fill="#FE8300" />
<rect x="188" y="420" width="4" height="16" fill="#000C23" />
<rect x="200" y="420" width="4" height="16" fill="#000C23" />
<rect x="204" y="420" width="8" height="4" fill="#FE8300" />
<rect x="212" y="420" width="4" height="16" fill="#000C23" />
<rect x="236" y="420" width="4" height="16" fill="#000C23" />
<rect x="244" y="420" width="4" height="4" fill="#FE8300" />
<rect x="272" y="420" width="4" height="12" fill="#FFC600" />
<rect x="332" y="420" width="4" height="16" fill="#000C23" />
<rect x="336" y="420" width="28" height="4" fill="#FE8300" />
<rect x="364" y="420" width="4" height="16" fill="#000C23" />
<rect x="376" y="420" width="4" height="16" fill="#000C23" />
<rect x="380" y="420" width="20" height="4" fill="#FE8300" />
<rect x="432" y="420" width="4" height="16" fill="#000C23" />
<rect x="436" y="420" width="8" height="4" fill="#FE8300" />
<rect x="444" y="420" width="4" height="16" fill="#000C23" />
<rect x="72" y="424" width="16" height="12" fill="#000C23" />
<rect x="116" y="424" width="28" height="12" fill="#000C23" />
<rect x="160" y="424" width="28" height="12" fill="#000C23" />
<rect x="204" y="424" width="8" height="12" fill="#000C23" />
<rect x="240" y="424" width="24" height="12" fill="#000C23" />
<rect x="264" y="424" width="4" height="4" fill="#FE8300" />
<rect x="268" y="424" width="4" height="4" fill="#FFC600" />
<rect x="276" y="424" width="4" height="8" fill="#FFC600" />
<rect x="292" y="424" width="28" height="12" fill="#000C23" />
<rect x="336" y="424" width="28" height="12" fill="#000C23" />
<rect x="380" y="424" width="24" height="12" fill="#000C23" />
<rect x="436" y="424" width="8" height="12" fill="#000C23" />
<rect x="64" y="428" width="4" height="8" fill="#3BB6FF" />
<rect x="68" y="428" width="4" height="4" fill="#000C23" />
<rect x="264" y="428" width="4" height="16" fill="#000C23" />
<rect x="268" y="428" width="4" height="4" fill="#FE8300" />
<rect x="280" y="428" width="4" height="4" fill="#FFC600" />
<rect x="412" y="428" width="4" height="8" fill="#000C23" />
<rect x="416" y="428" width="12" height="8" fill="#3BB6FF" />
<rect x="428" y="428" width="4" height="8" fill="#000C23" />
<rect x="60" y="432" width="4" height="4" fill="#3BB6FF" />
<rect x="68" y="432" width="4" height="12" fill="#3BB6FF" />
<rect x="96" y="432" width="12" height="8" fill="#3BB6FF" />
<rect x="216" y="432" width="4" height="4" fill="#000C23" />
<rect x="220" y="432" width="12" height="8" fill="#3BB6FF" />
<rect x="232" y="432" width="4" height="4" fill="#000C23" />
<rect x="268" y="432" width="4" height="12" fill="#000C23" />
<rect x="272" y="432" width="12" height="4" fill="#FE8300" />
<rect x="448" y="432" width="4" height="4" fill="#000C23" />
<rect x="452" y="432" width="4" height="12" fill="#3BB6FF" />
<rect x="72" y="436" width="24" height="8" fill="#3BB6FF" />
<rect x="108" y="436" width="112" height="8" fill="#3BB6FF" />
<rect x="232" y="436" width="32" height="8" fill="#3BB6FF" />
<rect x="272" y="436" width="12" height="8" fill="#000C23" />
<rect x="292" y="436" width="124" height="8" fill="#3BB6FF" />
<rect x="428" y="436" width="24" height="8" fill="#3BB6FF" />
<rect x="456" y="440" width="4" height="4" fill="#3BB6FF" />
<rect x="260" y="444" width="36" height="4" fill="#3BB6FF" />
<rect x="264" y="448" width="28" height="4" fill="#3BB6FF" />
</svg>