<svg width="110" height="450" viewBox="0 0 110 450" fill="none" xmlns="http://www.w3.org/2000/svg">
<mask id="path-1-inside-1_2_3" fill="white">
<path d="M51.375 448C50.2704 448 49.375 447.105 49.375 446V444.274H47C46.4478 444.274 46.0001 443.827 46 443.274V433C46 432.448 46.4477 432 47 432H63C63.5523 432 64 432.448 64 433V443.274C63.9999 443.827 63.5523 444.274 63 444.274H60.1748V446C60.1748 447.105 59.2794 448 58.1748 448H51.375Z"/>
</mask>
<path d="M51.375 448C50.2704 448 49.375 447.105 49.375 446V444.274H47C46.4478 444.274 46.0001 443.827 46 443.274V433C46 432.448 46.4477 432 47 432H63C63.5523 432 64 432.448 64 433V443.274C63.9999 443.827 63.5523 444.274 63 444.274H60.1748V446C60.1748 447.105 59.2794 448 58.1748 448H51.375Z" fill="#1D1D1D"/>
<path d="M51.375 448L51.375 450H51.375V448ZM49.375 444.274H51.375V442.274H49.375V444.274ZM46 443.274H44V443.275L46 443.274ZM46 433L44 433V433H46ZM47 432V430V432ZM63 432L63 430H63V432ZM64 433H66V433L64 433ZM64 443.274L66 443.275V443.274H64ZM60.1748 444.274V442.274H58.1748V444.274H60.1748ZM51.375 448L51.375 446H51.375H49.375H47.375C47.375 448.209 49.1659 450 51.375 450L51.375 448ZM49.375 446H51.375V444.274H49.375H47.375V446H49.375ZM49.375 444.274V442.274H47V444.274V446.274H49.375V444.274ZM47 444.274V442.274C47.5525 442.274 47.9999 442.722 48 443.274L46 443.274L44 443.275C44.0002 444.931 45.343 446.274 47 446.274V444.274ZM46 443.274H48V433H46H44V443.274H46ZM46 433L48 433C48 433.552 47.5523 434 47 434V432V430C45.3431 430 44 431.343 44 433L46 433ZM47 432V434H63V432V430H47V432ZM63 432L63 434C62.4477 434 62 433.552 62 433L64 433L66 433C66 431.343 64.6569 430 63 430L63 432ZM64 433H62V443.274H64H66V433H64ZM64 443.274L62 443.274C62.0001 442.722 62.4475 442.274 63 442.274V444.274V446.274C64.657 446.274 65.9998 444.931 66 443.275L64 443.274ZM63 444.274V442.274H60.1748V444.274V446.274H63V444.274ZM60.1748 444.274H58.1748V446H60.1748H62.1748V444.274H60.1748ZM60.1748 446H58.1748V448V450C60.3839 450 62.1748 448.209 62.1748 446H60.1748ZM58.1748 448V446H51.375V448V450H58.1748V448Z" fill="black" mask="url(#path-1-inside-1_2_3)"/>
<mask id="path-3-inside-2_2_3" fill="white">
<path d="M58.1748 2C59.2794 2 60.1748 2.89543 60.1748 4V6.55957H63C63.5521 6.55957 63.9998 7.00748 64 7.55957V19C64 19.5523 63.5523 20 63 20H47C46.4477 20 46 19.5523 46 19V7.55957C46.0002 7.00748 46.4479 6.55957 47 6.55957H49.375V4C49.375 2.89543 50.2704 2 51.375 2L58.1748 2Z"/>
</mask>
<path d="M58.1748 2C59.2794 2 60.1748 2.89543 60.1748 4V6.55957H63C63.5521 6.55957 63.9998 7.00748 64 7.55957V19C64 19.5523 63.5523 20 63 20H47C46.4477 20 46 19.5523 46 19V7.55957C46.0002 7.00748 46.4479 6.55957 47 6.55957H49.375V4C49.375 2.89543 50.2704 2 51.375 2L58.1748 2Z" fill="#E90000"/>
<path d="M60.1748 6.55957L58.1748 6.55957V8.55957L60.1748 8.55957V6.55957ZM64 7.55957H66V7.55874L64 7.55957ZM64 19L66 19V19L64 19ZM47 20L47 22H47V20ZM46 19H44V19L46 19ZM46 7.55957L44 7.55874V7.55957H46ZM49.375 6.55957V8.55957H51.375V6.55957L49.375 6.55957ZM49.375 4L47.375 4V4H49.375ZM58.1748 2V4H60.1748H62.1748C62.1748 1.79086 60.3839 0 58.1748 0V2ZM60.1748 4H58.1748V6.55957L60.1748 6.55957H62.1748V4H60.1748ZM60.1748 6.55957V8.55957H63V6.55957V4.55957H60.1748V6.55957ZM63 6.55957V8.55957C62.4468 8.55957 62.0002 8.11141 62 7.5604L64 7.55957L66 7.55874C65.9993 5.90355 64.6575 4.55957 63 4.55957V6.55957ZM64 7.55957H62V19H64L66 19V7.55957H64ZM64 19L62 19C62 18.4477 62.4477 18 63 18V20V22C64.6569 22 66 20.6568 66 19L64 19ZM63 20V18H47V20V22H63V20ZM47 20L47 18C47.5523 18 48 18.4477 48 19L46 19L44 19C44 20.6568 45.3431 22 47 22L47 20ZM46 19H48V7.55957H46H44V19H46ZM46 7.55957L48 7.5604C47.9998 8.11141 47.5533 8.55957 47 8.55957V6.55957V4.55957C45.3425 4.55957 44.0007 5.90355 44 7.55874L46 7.55957ZM47 6.55957V8.55957H49.375V6.55957V4.55957H47V6.55957ZM49.375 6.55957L51.375 6.55957V4H49.375H47.375V6.55957H49.375ZM49.375 4L51.375 4V4V2V0C49.1659 0 47.375 1.79086 47.375 4L49.375 4ZM51.375 2V4L58.1748 4V2V0L51.375 0V2Z" fill="black" mask="url(#path-3-inside-2_2_3)"/>
<rect x="1.5" y="14.5" width="107" height="421.5" rx="8.5" fill="#3B3B3B" stroke="black" stroke-width="3"/>
<rect x="41.5" y="23.5" width="27" height="9" rx="2.5" fill="#AAAAAA" stroke="black" stroke-width="3"/>
<rect x="25.5" y="417.5" width="60" height="7" rx="2.5" fill="#AAAAAA" stroke="black" stroke-width="3"/>
<rect x="11.5" y="31.5" width="87" height="387" rx="6.5" fill="url(#paint0_linear_2_3)" stroke="black" stroke-width="3"/>
<path d="M56.541 50.25C58.6119 50.2503 60.291 51.9291 60.291 54V60.709H67C69.0709 60.709 70.7497 62.3881 70.75 64.459V67.541C70.7497 69.6119 69.0709 71.291 67 71.291H60.291V78C60.291 80.0709 58.6119 81.7497 56.541 81.75H53.459C51.3881 81.7497 49.709 80.0709 49.709 78V71.291H43C40.9291 71.291 39.2503 69.6119 39.25 67.541V64.459C39.2503 62.3881 40.9291 60.709 43 60.709H49.709V54C49.709 51.9291 51.3881 50.2503 53.459 50.25H56.541Z" fill="white" stroke="black" stroke-width="1.5"/>
<path d="M67 385.25C69.0711 385.25 70.75 386.929 70.75 389V393C70.75 395.071 69.0711 396.75 67 396.75H43C40.9289 396.75 39.25 395.071 39.25 393V389C39.25 386.929 40.9289 385.25 43 385.25H67Z" fill="white" stroke="black" stroke-width="1.5"/>
<path d="M43.8044 254.707L66.1964 247.435C66.6764 247.267 67.1204 247.327 67.5284 247.615C67.9364 247.927 68.1404 248.335 68.1404 248.839V251.251C68.1404 251.851 67.9484 252.391 67.5644 252.871C67.2044 253.351 66.7364 253.663 66.1604 253.807L47.7644 258.523C47.7404 258.523 47.7284 258.535 47.7284 258.559C47.7284 258.583 47.7404 258.595 47.7644 258.595L66.1604 263.455C66.7364 263.599 67.2044 263.911 67.5644 264.391C67.9484 264.871 68.1404 265.411 68.1404 266.011V268.279C68.1404 268.783 67.9364 269.179 67.5284 269.467C67.1204 269.779 66.6764 269.851 66.1964 269.683L43.8044 262.411C43.2284 262.243 42.7604 261.907 42.4004 261.403C42.0404 260.923 41.8604 260.371 41.8604 259.747V257.371C41.8604 256.771 42.0404 256.219 42.4004 255.715C42.7604 255.235 43.2284 254.899 43.8044 254.707Z" fill="white"/>
<path d="M42.0044 217.613C42.1244 217.037 42.4244 216.557 42.9044 216.173C43.3844 215.813 43.9364 215.633 44.5604 215.633H45.6764C46.1804 215.633 46.5764 215.837 46.8644 216.245C47.1524 216.653 47.2364 217.097 47.1164 217.577C46.6124 219.521 46.3604 221.069 46.3604 222.221C46.3604 225.749 47.8364 227.513 50.7884 227.513C53.1884 227.513 54.3884 226.313 54.3884 223.913C54.3884 223.361 54.3044 222.881 54.1364 222.473C54.0884 222.329 53.9684 222.029 53.7764 221.573C53.6084 221.141 53.4764 220.805 53.3804 220.565C53.3084 220.349 53.2244 220.061 53.1284 219.701C53.0564 219.365 53.0204 219.041 53.0204 218.729V217.613C53.0204 217.061 53.2244 216.593 53.6324 216.209C54.0404 215.825 54.5204 215.645 55.0724 215.669L66.0884 216.173C66.6644 216.221 67.1444 216.449 67.5284 216.857C67.9364 217.265 68.1404 217.757 68.1404 218.333V230.249C68.1404 230.801 67.9364 231.281 67.5284 231.689C67.1204 232.097 66.6404 232.301 66.0884 232.301H65.2604C64.7084 232.301 64.2284 232.097 63.8204 231.689C63.4124 231.281 63.2084 230.801 63.2084 230.249V222.113C63.2084 221.897 63.1124 221.789 62.9204 221.789L58.3484 221.573C58.3244 221.573 58.3124 221.585 58.3124 221.609V221.681C58.7924 222.833 59.0324 223.973 59.0324 225.101C59.0324 227.789 58.3124 229.853 56.8724 231.293C55.4564 232.757 53.4284 233.489 50.7884 233.489C44.5964 233.489 41.5004 229.817 41.5004 222.473C41.5004 220.865 41.6684 219.245 42.0044 217.613Z" fill="white"/>
<path d="M41.8604 204.57C41.8604 204.018 42.0644 203.538 42.4724 203.13C42.8804 202.722 43.3604 202.518 43.9124 202.518H46.6484C47.2004 202.518 47.6804 202.722 48.0884 203.13C48.4964 203.538 48.7004 204.018 48.7004 204.57V207.306C48.7004 207.858 48.4964 208.338 48.0884 208.746C47.6804 209.154 47.2004 209.358 46.6484 209.358H43.9124C43.3604 209.358 42.8804 209.154 42.4724 208.746C42.0644 208.338 41.8604 207.858 41.8604 207.306V204.57Z" fill="white"/>
<path d="M57.5924 181.12C57.3284 180.784 57.2924 180.424 57.4844 180.04C57.6764 179.68 57.9884 179.5 58.4204 179.5H61.0484C62.4164 179.5 63.4964 180.052 64.2884 181.156L66.9524 184.792C67.7444 185.872 68.1404 187.108 68.1404 188.5V190.768C68.1404 191.32 67.9364 191.8 67.5284 192.208C67.1204 192.616 66.6404 192.82 66.0884 192.82H43.9124C43.3604 192.82 42.8804 192.616 42.4724 192.208C42.0644 191.8 41.8604 191.32 41.8604 190.768V188.5C41.8604 187.948 42.0644 187.468 42.4724 187.06C42.8804 186.652 43.3604 186.448 43.9124 186.448H61.4084V186.412V186.376L57.5924 181.12Z" fill="white"/>
<path d="M69.6406 268.279C69.6406 269.265 69.2041 270.121 68.3936 270.693V270.692C67.6074 271.272 66.668 271.425 65.7344 271.109L65.7334 271.11L43.3408 263.838L43.3418 263.836C42.4624 263.569 41.7392 263.044 41.2012 262.303C41.1942 262.293 41.1866 262.285 41.1797 262.275L41.1807 262.274C40.6318 261.53 40.3604 260.67 40.3604 259.747V257.371C40.3604 256.448 40.6444 255.593 41.1797 254.844L41.1895 254.829L41.2002 254.815C41.7456 254.088 42.4683 253.571 43.3301 253.284L43.3408 253.281L65.7334 246.009H65.7344C66.6515 245.699 67.5907 245.823 68.3936 246.39L68.417 246.406L68.4395 246.424C69.2103 247.013 69.6406 247.858 69.6406 248.84H68.1406L68.1309 248.655C68.0863 248.235 67.8854 247.888 67.5283 247.615L67.374 247.519C67.009 247.316 66.6165 247.288 66.1963 247.436L43.8047 254.707C43.2287 254.899 42.7604 255.236 42.4004 255.716C42.0406 256.22 41.8604 256.771 41.8604 257.371V259.747C41.8604 260.371 42.0404 260.923 42.4004 261.403C42.7604 261.907 43.2287 262.243 43.8047 262.411L66.1963 269.684C66.6762 269.852 67.1204 269.78 67.5283 269.468C67.9363 269.18 68.1406 268.783 68.1406 268.279H69.6406ZM69.6406 268.279H68.1406V266.012H69.6406V268.279ZM69.6406 251.252H68.1406V248.84H69.6406V251.252ZM47.7373 258.587C47.7312 258.581 47.7285 258.572 47.7285 258.56L47.7373 258.532C47.7433 258.526 47.7527 258.523 47.7646 258.523L66.1602 253.808C66.7362 253.664 67.2045 253.351 67.5645 252.871C67.9003 252.451 68.0899 251.985 68.1318 251.474L68.1406 251.252H69.6406C69.6405 252.186 69.3358 253.04 68.7637 253.771L68.7646 253.771C68.7584 253.78 68.7514 253.788 68.7451 253.796C68.7419 253.8 68.7386 253.804 68.7354 253.809V253.808C68.1758 254.537 67.4282 255.034 66.5332 255.26L53.582 258.58L66.5439 262.005C67.4492 262.236 68.2044 262.744 68.7646 263.491H68.7637C69.3362 264.222 69.6406 265.078 69.6406 266.012H68.1406L68.1318 265.789C68.0898 265.277 67.9003 264.812 67.5645 264.392C67.2045 263.912 66.7362 263.599 66.1602 263.455L47.7646 258.596L47.7373 258.587Z" fill="black"/>
<path d="M50.7881 233.489C53.2631 233.489 55.2004 232.845 56.5996 231.559L56.8721 231.293C58.222 229.943 58.939 228.044 59.0234 225.598L59.0322 225.101C59.0322 223.973 58.7925 222.833 58.3125 221.681V221.608C58.3126 221.597 58.3154 221.588 58.3213 221.582L58.3486 221.573L62.9199 221.789C63.088 221.789 63.1832 221.872 63.2041 222.037L63.208 222.113V230.249L63.2178 230.452C63.256 230.853 63.409 231.213 63.6768 231.532L63.8203 231.688C64.2283 232.096 64.7087 232.301 65.2607 232.301H66.0879C66.571 232.301 66.9993 232.145 67.3721 231.832L67.5283 231.688C67.8853 231.331 68.0863 230.919 68.1309 230.452L68.1406 230.249H69.6406C69.6406 231.218 69.2638 232.074 68.5889 232.749C67.9138 233.424 67.0573 233.801 66.0879 233.801H65.2607C64.2913 233.801 63.4349 233.424 62.7598 232.749C62.0848 232.074 61.7081 231.218 61.708 230.249V223.233L60.335 223.168C60.4648 223.809 60.5322 224.453 60.5322 225.101C60.5322 228.045 59.7402 230.534 57.9502 232.335V232.336C56.1744 234.172 53.7081 234.989 50.7881 234.989C47.3877 234.989 44.5868 233.968 42.6758 231.702C40.806 229.485 40 226.319 40 222.473C40 220.76 40.1794 219.038 40.5352 217.311L40.5361 217.307C40.7307 216.373 41.2287 215.593 41.9678 215.002L41.9854 214.987L42.0039 214.973C42.7545 214.41 43.6259 214.133 44.5605 214.133H45.6768C46.6626 214.133 47.5178 214.569 48.0898 215.38C48.5933 216.093 48.7756 216.922 48.6094 217.771L48.5713 217.94L48.5684 217.953L48.3965 218.642C48.0255 220.195 47.8604 221.376 47.8604 222.221H46.3604C46.3604 221.069 46.6123 219.521 47.1162 217.577C47.2362 217.097 47.1522 216.653 46.8643 216.245L46.751 216.102C46.4754 215.789 46.1175 215.633 45.6768 215.633H44.5605C43.9365 215.633 43.3843 215.813 42.9043 216.173C42.4243 216.557 42.1239 217.037 42.0039 217.613C41.71 219.041 41.5446 220.46 41.5078 221.869L41.5 222.473C41.5 229.587 44.4058 233.256 50.2168 233.479L50.7881 233.489ZM50.7881 226.013C51.7569 226.013 52.2083 225.771 52.4277 225.552C52.6471 225.332 52.8886 224.881 52.8887 223.913C52.8887 223.51 52.8263 223.232 52.749 223.044L52.7295 222.996L52.7129 222.947C52.6865 222.868 52.5906 222.623 52.3936 222.155L52.3779 222.116C52.2106 221.686 52.0806 221.355 51.9873 221.122L51.9717 221.081L51.957 221.039C51.8713 220.782 51.7783 220.46 51.6787 220.087L51.6689 220.052L51.6621 220.016C51.5702 219.587 51.5205 219.156 51.5205 218.729V217.613C51.5205 216.641 51.9004 215.779 52.6045 215.116C53.3025 214.459 54.1752 214.128 55.1377 214.17H55.1406L55.0723 215.669H54.8691C54.4018 215.692 53.9899 215.873 53.6328 216.209C53.2757 216.545 53.0748 216.945 53.0303 217.41L53.0205 217.613V218.729C53.0205 218.963 53.0405 219.204 53.0811 219.451L53.1279 219.701C53.1759 219.881 53.2217 220.043 53.2637 220.187L53.3799 220.564L53.7764 221.573C53.9683 222.029 54.0887 222.329 54.1367 222.473C54.3047 222.881 54.3887 223.361 54.3887 223.913L54.374 224.349C54.2334 226.458 53.0381 227.513 50.7881 227.513L50.5156 227.508C47.7454 227.401 46.3604 225.638 46.3604 222.221H47.8604C47.8604 223.812 48.1992 224.727 48.6182 225.228C48.9942 225.677 49.621 226.013 50.7881 226.013ZM68.1406 218.333L68.1309 218.121C68.0863 217.635 67.8854 217.214 67.5283 216.856C67.1444 216.449 66.6638 216.221 66.0879 216.173L55.0723 215.669L55.1406 214.171L66.1572 214.675L66.1846 214.676L66.2129 214.678C67.0868 214.751 67.8699 215.095 68.4971 215.703L68.6211 215.829C69.2889 216.513 69.6406 217.374 69.6406 218.333H68.1406ZM69.6406 230.249H68.1406V218.333H69.6406V230.249Z" fill="black"/>
<path d="M43.9121 201.018H46.6484C47.6179 201.018 48.4743 201.394 49.1494 202.069C49.8244 202.744 50.2002 203.601 50.2002 204.57H48.7002L48.6904 204.366C48.6458 203.899 48.4449 203.487 48.0879 203.13L47.9316 202.986C47.559 202.674 47.1313 202.518 46.6484 202.518H43.9121L43.709 202.527C43.2417 202.572 42.8297 202.773 42.4727 203.13C42.1157 203.487 41.9148 203.899 41.8701 204.366L41.8604 204.57V207.306C41.8604 207.789 42.0166 208.217 42.3291 208.59L42.4727 208.746C42.8297 209.103 43.2417 209.304 43.709 209.349L43.9121 209.357H46.6484C47.1312 209.357 47.559 209.202 47.9316 208.89L48.0879 208.746C48.4448 208.389 48.6457 207.977 48.6904 207.51L48.7002 207.306H50.2002C50.2002 208.275 49.8244 209.132 49.1494 209.807C48.4743 210.482 47.6179 210.857 46.6484 210.857H43.9121C42.9429 210.857 42.0871 210.482 41.4121 209.807C40.737 209.132 40.3604 208.275 40.3604 207.306V204.57C40.3604 203.601 40.737 202.744 41.4121 202.069C42.0871 201.394 42.9428 201.018 43.9121 201.018ZM50.2002 207.306H48.7002V204.57H50.2002V207.306Z" fill="black"/>
<path d="M43.9121 184.948H58.5186L56.3789 182.001C56.1202 181.658 55.924 181.237 55.875 180.747C55.8239 180.236 55.9438 179.767 56.1426 179.369L56.1514 179.352L56.1611 179.334C56.3711 178.94 56.6825 178.584 57.1123 178.336C57.5376 178.091 57.9934 178 58.4199 178H61.0488C62.8959 178 64.4309 178.782 65.5068 180.281L68.1621 183.904C69.1506 185.252 69.6406 186.802 69.6406 188.5H68.1406L68.1357 188.24C68.0893 186.954 67.6946 185.804 66.9521 184.792L64.2881 181.156L64.1367 180.955C63.3606 179.985 62.3311 179.5 61.0488 179.5H58.4199C57.9881 179.5 57.6763 179.68 57.4844 180.04C57.2925 180.424 57.3288 180.784 57.5928 181.12L61.4082 186.376V186.448H43.9121L43.709 186.457C43.2417 186.502 42.8297 186.703 42.4727 187.06C42.1157 187.416 41.9148 187.829 41.8701 188.296L41.8604 188.5V190.768C41.8604 191.251 42.0166 191.679 42.3291 192.052L42.4727 192.208C42.8297 192.565 43.2417 192.766 43.709 192.811L43.9121 192.819H66.0879C66.5708 192.819 66.9993 192.664 67.3721 192.352L67.5283 192.208C67.9363 191.8 68.1406 191.32 68.1406 190.768H69.6406C69.6406 191.737 69.264 192.593 68.5889 193.269C67.9138 193.944 67.0573 194.319 66.0879 194.319H43.9121C42.9429 194.319 42.0871 193.943 41.4121 193.269C40.737 192.593 40.3604 191.737 40.3604 190.768V188.5C40.3604 187.531 40.737 186.674 41.4121 185.999C42.0871 185.324 42.9429 184.948 43.9121 184.948ZM69.6406 190.768H68.1406V188.5H69.6406V190.768Z" fill="black"/>
<defs>
<linearGradient id="paint0_linear_2_3" x1="55" y1="30" x2="55" y2="420" gradientUnits="userSpaceOnUse">
<stop offset="0.283654" stop-color="#26B126"/>
<stop offset="0.283754" stop-color="#18921D"/>
<stop offset="1" stop-color="#18921D"/>
</linearGradient>
</defs>
</svg>
