<svg width="220" height="180" viewBox="0 0 220 180" fill="none" xmlns="http://www.w3.org/2000/svg">
<g clip-path="url(#clip0_41_67)">
<rect x="16" y="92" width="7" height="87" rx="1" fill="#D9D9D9" stroke="black" stroke-width="2"/>
<rect x="37" y="92" width="7" height="62" rx="1" fill="#D9D9D9" stroke="black" stroke-width="2"/>
<path d="M30 22.5C40.9534 22.5 46.6319 27.9514 49.6543 33.3955C51.1847 36.1522 52.0381 38.9242 52.5068 41.0166C52.7405 42.0596 52.8766 42.9254 52.9541 43.5244C52.9928 43.8235 53.0162 44.0555 53.0303 44.209C53.0373 44.2857 53.0422 44.3429 53.0449 44.3789C53.0453 44.3835 53.0456 44.3877 53.0459 44.3916V81.3936C53.046 82.7742 54.1652 83.8936 55.5459 83.8936H58.5V91.5H1.5V83.1865H4.4541C5.83474 83.1865 6.95398 82.0671 6.9541 80.6865V44.3916C6.95438 44.3877 6.95474 44.3835 6.95508 44.3789C6.95776 44.3429 6.9627 44.2857 6.96973 44.209C6.98378 44.0555 7.0072 43.8235 7.0459 43.5244C7.12341 42.9254 7.25954 42.0596 7.49316 41.0166C7.96189 38.9242 8.81527 36.1522 10.3457 33.3955C13.3681 27.9514 19.0466 22.5 30 22.5Z" fill="#A23030" fill-opacity="0.9" stroke="black" stroke-width="3"/>
<rect x="108.5" y="1.5" width="3" height="18" rx="1.5" fill="#FF0000" stroke="#D80000"/>
<rect x="86.3185" y="9.32791" width="2.81619" height="16.5324" rx="1.4081" transform="rotate(-29.5385 86.3185 9.32791)" fill="#FF0000" stroke="#D80000"/>
<rect x="96" y="92" width="7" height="87" rx="1" fill="#D9D9D9" stroke="black" stroke-width="2"/>
<rect x="117" y="92" width="7" height="62" rx="1" fill="#D9D9D9" stroke="black" stroke-width="2"/>
<path d="M110 22.5C120.953 22.5 126.632 27.9514 129.654 33.3955C131.185 36.1522 132.038 38.9242 132.507 41.0166C132.74 42.0596 132.877 42.9254 132.954 43.5244C132.993 43.8235 133.016 44.0555 133.03 44.209C133.037 44.2857 133.042 44.3429 133.045 44.3789C133.045 44.3835 133.046 44.3877 133.046 44.3916V81.3936C133.046 82.7742 134.165 83.8936 135.546 83.8936H138.5V91.5H81.5V83.1865H84.4541C85.8347 83.1865 86.954 82.0671 86.9541 80.6865V44.3916C86.9544 44.3877 86.9547 44.3835 86.9551 44.3789C86.9578 44.3429 86.9627 44.2857 86.9697 44.209C86.9838 44.0555 87.0072 43.8235 87.0459 43.5244C87.1234 42.9254 87.2595 42.0596 87.4932 41.0166C87.9619 38.9242 88.8153 36.1522 90.3457 33.3955C93.3681 27.9514 99.0466 22.5 110 22.5Z" fill="#E90000" stroke="black" stroke-width="3"/>
<rect x="132.817" y="7.62131" width="2.81619" height="16.5324" rx="1.4081" transform="rotate(30 132.817 7.62131)" fill="#FF0000" stroke="#D80000"/>
<rect x="176" y="91" width="7" height="88" rx="1" fill="#D9D9D9" stroke="black" stroke-width="2"/>
<rect x="197" y="92" width="7" height="62" rx="1" fill="#D9D9D9" stroke="black" stroke-width="2"/>
<path d="M190 22.5C200.953 22.5 206.632 27.9514 209.654 33.3955C211.185 36.1522 212.038 38.9242 212.507 41.0166C212.74 42.0596 212.877 42.9254 212.954 43.5244C212.993 43.8235 213.016 44.0555 213.03 44.209C213.037 44.2857 213.042 44.3429 213.045 44.3789C213.045 44.3835 213.046 44.3877 213.046 44.3916V81.3936C213.046 82.7742 214.165 83.8936 215.546 83.8936H218.5V91.5H161.5V83.1865H164.454C165.835 83.1865 166.954 82.0671 166.954 80.6865V44.3916C166.954 44.3877 166.955 44.3835 166.955 44.3789C166.958 44.3429 166.963 44.2857 166.97 44.209C166.984 44.0555 167.007 43.8235 167.046 43.5244C167.123 42.9254 167.26 42.0596 167.493 41.0166C167.962 38.9242 168.815 36.1522 170.346 33.3955C173.368 27.9514 179.047 22.5 190 22.5Z" fill="#A23030" fill-opacity="0.9" stroke="black" stroke-width="3"/>
<path d="M202.672 8.3994C203.205 7.86687 204.068 7.86687 204.601 8.3994C205.133 8.93194 205.133 9.79515 204.601 10.3277L191.928 23L204.601 35.6723C205.133 36.2049 205.133 37.0681 204.601 37.6006C204.068 38.1331 203.205 38.1331 202.672 37.6006L190 24.9283L177.328 37.6006C176.795 38.1331 175.932 38.1331 175.399 37.6006C174.867 37.0681 174.867 36.2049 175.399 35.6723L188.072 23L175.399 10.3277C174.867 9.79515 174.867 8.93194 175.399 8.3994C175.932 7.86687 176.795 7.86687 177.328 8.3994L190 21.0717L202.672 8.3994Z" fill="#FFAE00" stroke="#9F9F9F" stroke-opacity="0.9" stroke-width="0.5" stroke-linecap="round"/>
</g>
<defs>
<clipPath id="clip0_41_67">
<rect width="220" height="180" fill="white"/>
</clipPath>
</defs>
</svg>
