<svg width="215" height="45" viewBox="0 0 215 45" fill="none" xmlns="http://www.w3.org/2000/svg">
<g clip-path="url(#clip0_72_30)">
<path d="M1 23L1 18C1 17.4477 1.44772 17 2 17L55 17C55.5523 17 56 17.4477 56 18V23C56 23.5523 55.5523 24 55 24L2 24C1.44772 24 1 23.5523 1 23Z" fill="#D9D9D9" stroke="black" stroke-width="2"/>
<path d="M159 23V18C159 17.4477 159.448 17 160 17L213 17C213.552 17 214 17.4477 214 18V23C214 23.5523 213.552 24 213 24L160 24C159.448 24 159 23.5523 159 23Z" fill="#D9D9D9" stroke="black" stroke-width="2"/>
<path d="M146.683 1C150.176 1 153.481 3.22695 155.963 7.12695C158.437 11.0151 160 16.4476 160 22.5C160 28.5524 158.437 33.9849 155.963 37.873C153.481 41.773 150.176 44 146.683 44C142.938 43.9998 139.407 41.4345 136.884 37.0049L136.596 36.5H78.4043L78.1162 37.0049C75.5931 41.4345 72.0616 43.9998 68.3174 44C64.8244 44 61.5187 41.773 59.0371 37.873C56.5631 33.9849 55 28.5524 55 22.5C55 16.4476 56.5631 11.0151 59.0371 7.12695C61.5187 3.22695 64.8244 1 68.3174 1C71.6379 1.00019 74.7835 3.01233 77.2217 6.56543L77.5195 7H137.48L137.778 6.56543C140.217 3.01233 143.362 1.00019 146.683 1Z" fill="#F3B44E" stroke="black" stroke-width="2"/>
</g>
<defs>
<clipPath id="clip0_72_30">
<rect width="215" height="45" fill="white"/>
</clipPath>
</defs>
</svg>
